/* XPM */
static char * closepr_xpm[] = {
"19 19 190 2",
"  	c #3B424B",
". 	c #3B434C",
"+ 	c #3C444D",
"@ 	c #3E454E",
"# 	c #3E464F",
"$ 	c #3C434C",
"% 	c #3C434D",
"& 	c #3D444D",
"* 	c #595E66",
"= 	c #5A5F67",
"- 	c #5B6068",
"; 	c #5C626A",
"> 	c #5E636B",
", 	c #5D636B",
"' 	c #5D626A",
") 	c #5B6069",
"! 	c #5C6169",
"~ 	c #5D626B",
"{ 	c #4A4F56",
"] 	c #4A4F57",
"^ 	c #4C5158",
"/ 	c #4E535B",
"( 	c #4F555C",
"_ 	c #50555D",
": 	c #51565E",
"< 	c #535960",
"[ 	c #535961",
"} 	c #51575F",
"| 	c #4F545C",
"1 	c #4C5159",
"2 	c #4B5057",
"3 	c #454B52",
"4 	c #464C54",
"5 	c #494F57",
"6 	c #4C525A",
"7 	c #4D545C",
"8 	c #4F555D",
"9 	c #4F565E",
"0 	c #4E555D",
"a 	c #525961",
"b 	c #4B5158",
"c 	c #474D55",
"d 	c #464C53",
"e 	c #434950",
"f 	c #444A51",
"g 	c #484E56",
"h 	c #4F565F",
"i 	c #535B63",
"j 	c #545B64",
"k 	c #525962",
"l 	c #515861",
"m 	c #535A63",
"n 	c #4E565E",
"o 	c #40464F",
"p 	c #414750",
"q 	c #444A53",
"r 	c #49505A",
"s 	c #505762",
"t 	c #565E6A",
"u 	c #58606D",
"v 	c #555D69",
"w 	c #545B67",
"x 	c #535B67",
"y 	c #515864",
"z 	c #4C535E",
"A 	c #464C56",
"B 	c #424851",
"C 	c #3E444D",
"D 	c #404650",
"E 	c #464D57",
"F 	c #505864",
"G 	c #59616E",
"H 	c #5C6573",
"I 	c #5B6471",
"J 	c #5A6370",
"K 	c #575F6C",
"L 	c #515965",
"M 	c #49505B",
"N 	c #434953",
"O 	c #3F454F",
"P 	c #414953",
"Q 	c #4B5460",
"R 	c #555F6C",
"S 	c #5A6573",
"T 	c #5D6876",
"U 	c #5D6877",
"V 	c #5A6572",
"W 	c #505A66",
"X 	c #454D57",
"Y 	c #3A4049",
"Z 	c #3B414A",
"` 	c #4F5764",
" .	c #FFFFFF",
"..	c #5D6674",
"+.	c #4F5763",
"@.	c #424953",
"#.	c #3C424B",
"$.	c #373E47",
"%.	c #39414A",
"&.	c #3F4751",
"*.	c #48515D",
"=.	c #000000",
"-.	c #4A535F",
";.	c #3D454F",
">.	c #383F48",
",.	c #363D45",
"'.	c #383F47",
").	c #3E454F",
"!.	c #464F5A",
"~.	c #525C68",
"{.	c #5B6674",
"].	c #4B545F",
"^.	c #3D454D",
"/.	c #333A44",
"(.	c #353D47",
"_.	c #3C4450",
":.	c #47505E",
"<.	c #485260",
"[.	c #3B444F",
"}.	c #353C47",
"|.	c #323943",
"1.	c #363D48",
"2.	c #3E4653",
"3.	c #4A5463",
"4.	c #566273",
"5.	c #485261",
"6.	c #3D4652",
"7.	c #303740",
"8.	c #313942",
"9.	c #363E48",
"0.	c #3F4854",
"a.	c #4A5462",
"b.	c #505C6B",
"c.	c #4E5967",
"d.	c #4A5563",
"e.	c #46515E",
"f.	c #3E4753",
"g.	c #313841",
"h.	c #2F3640",
"i.	c #2F3741",
"j.	c #313943",
"k.	c #373F4B",
"l.	c #3E4855",
"m.	c #454F5E",
"n.	c #495464",
"o.	c #495463",
"p.	c #46505F",
"q.	c #45505F",
"r.	c #434D5C",
"s.	c #3D4653",
"t.	c #353D48",
"u.	c #313842",
"v.	c #2D353F",
"w.	c #2E3640",
"x.	c #313A45",
"y.	c #37414D",
"z.	c #3C4754",
"A.	c #3F4A58",
"B.	c #404C5A",
"C.	c #414C5A",
"D.	c #3F4B59",
"E.	c #3E4957",
"F.	c #3A4451",
"G.	c #343D49",
"H.	c #303843",
"I.	c #2C333E",
"J.	c #2D3540",
"K.	c #313946",
"L.	c #37404E",
"M.	c #3B4453",
"N.	c #3B4452",
"O.	c #3A4352",
"P.	c #3A4351",
"Q.	c #394351",
"R.	c #353D4A",
"S.	c #313945",
"T.	c #2E3541",
"U.	c #2C333F",
"V.	c #414851",
"W.	c #454B55",
"X.	c #4A515B",
"Y.	c #4D545F",
"Z.	c #4B525C",
"`.	c #4B525D",
" +	c #494F5A",
".+	c #373E46",
"++	c #394149",
"@+	c #414952",
"#+	c #404851",
"$+	c #3F4750",
"    . + @ # # @ + $ % & & & $         ",
"* * = - ; > , ' ) - ! ~ > ' - = * * * ",
"{ { ] ^ / ( _ _ ( ( : < [ } | 1 2 { { ",
"3 3 3 4 5 6 7 8 9 0 9 a a 0 b c d 3 3 ",
"e e e f g 6 h i j k l m k n 5 3 e e e ",
"o o o p q r s t u v w x y z A B o o o ",
"C C C C D E F G H I J K L M N O C C C ",
"        + P Q R S T U V W X @         ",
"Y Y Y Y Z C X `  ... . .+.@.#.Y Y Y Y ",
"$.$.$.$.$.%.&.*.=. . .=.-.;.>.$.$.$.$.",
",.,.,.,.,.'.).!.~. . .{.].^.$.,.,.,.,.",
"/././././.(._.:. . .=. .<.[.}././././.",
"|.|.|.|./.1.2.3.=.=.4.=.5.6.(./.|.|.|.",
"7.7.7.7.8.9.0.a.b.b.c.d.e.f.9.g.7.7.7.",
"h.h.h.i.j.k.l.m.n.o.p.q.r.s.t.u.h.h.h.",
"v.v.v.w.x.y.z.A.B.C.A.D.E.F.G.H.w.v.v.",
"I.I.I.J.K.L.M.M.N.M.O.P.Q.L.R.S.T.U.I.",
"o o o V.W.X.Y.z Z.`.Z.M r r  +E N p o ",
".+.+'.++. # @+#+$+$+$+# # # $+#   '..+"};
