/* XPM */
static char * maxufcs_xpm[] = {
"19 19 22 1",
" 	c #232830",
".	c #3E434B",
"+	c #2F343B",
"@	c #2B3037",
"#	c #292E35",
"$	c #272C34",
"%	c #252A32",
"&	c #22272E",
"*	c #909396",
"=	c #20252D",
"-	c #8F9296",
";	c #000000",
">	c #1F242B",
",	c #8F9195",
"'	c #1D222A",
")	c #8E9094",
"!	c #1C2129",
"~	c #1B2027",
"{	c #1A1F27",
"]	c #191E26",
"^	c #181D25",
"/	c #20252C",
"                   ",
"...................",
"+++++++++++++++++++",
"@@@@@@@@@@@@@@@@@@@",
"###################",
"$$$$$$$$$$$$$$$$$$$",
"%%%%%%%%%%%%%%%%%%%",
"                   ",
"&&&&&&&&****&&&&&&&",
"========-;;-=======",
">>>>>>>>,>>,>>>>>>>",
"''''''''))))'''''''",
"!!!!!!!!;;;;!!!!!!!",
"~~~~~~~~~~~~~~~~~~~",
"{{{{{{{{{{{{{{{{{{{",
"]]]]]]]]]]]]]]]]]]]",
"^^^^^^^^^^^^^^^^^^^",
"$$$$$$$$$$$$$$$$$$$",
"///////////////////"};
