/* XPM */
static char * minpr_xpm[] = {
"19 19 197 2",
"  	c #3B424B",
". 	c #3B434C",
"+ 	c #3C444D",
"@ 	c #3E454E",
"# 	c #3E464F",
"$ 	c #3C434C",
"% 	c #3C434D",
"& 	c #3D444D",
"* 	c #595E66",
"= 	c #5A5F67",
"- 	c #5B6068",
"; 	c #5C626A",
"> 	c #5E636B",
", 	c #5D636B",
"' 	c #5D626A",
") 	c #5B6069",
"! 	c #5C6169",
"~ 	c #5D626B",
"{ 	c #4A4F56",
"] 	c #4A4F57",
"^ 	c #4C5158",
"/ 	c #4E535B",
"( 	c #4F555C",
"_ 	c #50555D",
": 	c #51565E",
"< 	c #535960",
"[ 	c #535961",
"} 	c #51575F",
"| 	c #4F545C",
"1 	c #4C5159",
"2 	c #4B5057",
"3 	c #454B52",
"4 	c #464C54",
"5 	c #494F57",
"6 	c #4C525A",
"7 	c #4D545C",
"8 	c #4F555D",
"9 	c #4F565E",
"0 	c #4E555D",
"a 	c #525961",
"b 	c #4B5158",
"c 	c #474D55",
"d 	c #464C53",
"e 	c #434950",
"f 	c #444A51",
"g 	c #484E56",
"h 	c #4F565F",
"i 	c #535B63",
"j 	c #545B64",
"k 	c #525962",
"l 	c #515861",
"m 	c #535A63",
"n 	c #4E565E",
"o 	c #40464F",
"p 	c #414750",
"q 	c #444A53",
"r 	c #49505A",
"s 	c #505762",
"t 	c #565E6A",
"u 	c #58606D",
"v 	c #555D69",
"w 	c #545B67",
"x 	c #535B67",
"y 	c #515864",
"z 	c #4C535E",
"A 	c #464C56",
"B 	c #424851",
"C 	c #3E444D",
"D 	c #404650",
"E 	c #464D57",
"F 	c #505864",
"G 	c #59616E",
"H 	c #5C6573",
"I 	c #5B6471",
"J 	c #5A6370",
"K 	c #575F6C",
"L 	c #515965",
"M 	c #49505B",
"N 	c #434953",
"O 	c #3F454F",
"P 	c #414953",
"Q 	c #4B5460",
"R 	c #555F6C",
"S 	c #5A6573",
"T 	c #5D6876",
"U 	c #5D6877",
"V 	c #5A6572",
"W 	c #505A66",
"X 	c #454D57",
"Y 	c #3A4049",
"Z 	c #3B414A",
"` 	c #4F5764",
" .	c #565F6D",
"..	c #5D6674",
"+.	c #606978",
"@.	c #4F5763",
"#.	c #424953",
"$.	c #3C424B",
"%.	c #373E47",
"&.	c #39414A",
"*.	c #3F4751",
"=.	c #48515D",
"-.	c #505B68",
";.	c #596573",
">.	c #5E6A7A",
",.	c #586372",
"'.	c #4A535F",
").	c #3D454F",
"!.	c #383F48",
"~.	c #363D45",
"{.	c #383F47",
"].	c #3E454F",
"^.	c #464F5A",
"/.	c #525C68",
"(.	c #5D6977",
"_.	c #626F7D",
":.	c #5B6674",
"<.	c #4B545F",
"[.	c #3D454D",
"}.	c #333A44",
"|.	c #353D47",
"1.	c #3C4450",
"2.	c #47505E",
"3.	c #FFFFFF",
"4.	c #485260",
"5.	c #3B444F",
"6.	c #353C47",
"7.	c #323943",
"8.	c #363D48",
"9.	c #3E4653",
"0.	c #4A5463",
"a.	c #000000",
"b.	c #485261",
"c.	c #3D4652",
"d.	c #303740",
"e.	c #313942",
"f.	c #363E48",
"g.	c #3F4854",
"h.	c #4A5462",
"i.	c #505C6B",
"j.	c #4E5967",
"k.	c #4A5563",
"l.	c #46515E",
"m.	c #3E4753",
"n.	c #313841",
"o.	c #2F3640",
"p.	c #2F3741",
"q.	c #313943",
"r.	c #373F4B",
"s.	c #3E4855",
"t.	c #454F5E",
"u.	c #495464",
"v.	c #495463",
"w.	c #46505F",
"x.	c #45505F",
"y.	c #434D5C",
"z.	c #3D4653",
"A.	c #353D48",
"B.	c #313842",
"C.	c #2D353F",
"D.	c #2E3640",
"E.	c #313A45",
"F.	c #37414D",
"G.	c #3C4754",
"H.	c #3F4A58",
"I.	c #404C5A",
"J.	c #414C5A",
"K.	c #3F4B59",
"L.	c #3E4957",
"M.	c #3A4451",
"N.	c #343D49",
"O.	c #303843",
"P.	c #2C333E",
"Q.	c #2D3540",
"R.	c #313946",
"S.	c #37404E",
"T.	c #3B4453",
"U.	c #3B4452",
"V.	c #3A4352",
"W.	c #3A4351",
"X.	c #394351",
"Y.	c #353D4A",
"Z.	c #313945",
"`.	c #2E3541",
" +	c #2C333F",
".+	c #414851",
"++	c #454B55",
"@+	c #4A515B",
"#+	c #4D545F",
"$+	c #4B525C",
"%+	c #4B525D",
"&+	c #494F5A",
"*+	c #373E46",
"=+	c #394149",
"-+	c #414952",
";+	c #404851",
">+	c #3F4750",
"    . + @ # # @ + $ % & & & $         ",
"* * = - ; > , ' ) - ! ~ > ' - = * * * ",
"{ { ] ^ / ( _ _ ( ( : < [ } | 1 2 { { ",
"3 3 3 4 5 6 7 8 9 0 9 a a 0 b c d 3 3 ",
"e e e f g 6 h i j k l m k n 5 3 e e e ",
"o o o p q r s t u v w x y z A B o o o ",
"C C C C D E F G H I J K L M N O C C C ",
"        + P Q R S T U V W X @         ",
"Y Y Y Y Z C X `  ...+.H @.#.$.Y Y Y Y ",
"%.%.%.%.%.&.*.=.-.;.>.,.'.).!.%.%.%.%.",
"~.~.~.~.~.{.].^./.(._.:.<.[.%.~.~.~.~.",
"}.}.}.}.}.|.1.2.3.3.3.3.4.5.6.}.}.}.}.",
"7.7.7.7.}.8.9.0.a.a.a.a.b.c.|.}.7.7.7.",
"d.d.d.d.e.f.g.h.i.i.j.k.l.m.f.n.d.d.d.",
"o.o.o.p.q.r.s.t.u.v.w.x.y.z.A.B.o.o.o.",
"C.C.C.D.E.F.G.H.I.J.H.K.L.M.N.O.D.C.C.",
"P.P.P.Q.R.S.T.T.U.T.V.W.X.S.Y.Z.`. +P.",
"o o o .+++@+#+z $+%+$+M r r &+E N p o ",
"*+*+{.=+. # -+;+>+>+>+# # # >+#   {.*+"};
