/* XPM */
static char * stuckufcs_xpm[] = {
"19 19 22 1",
" 	c #232830",
".	c #3E434B",
"+	c #2F343B",
"@	c #2B3037",
"#	c #292E35",
"$	c #272C34",
"%	c #252A32",
"&	c #A7A9AC",
"*	c #22272E",
"=	c #A7A9AB",
"-	c #20252D",
";	c #A6A8AB",
">	c #1F242B",
",	c #A5A7AA",
"'	c #1D222A",
")	c #1C2129",
"!	c #000000",
"~	c #1B2027",
"{	c #1A1F27",
"]	c #191E26",
"^	c #181D25",
"/	c #20252C",
"                   ",
"...................",
"+++++++++++++++++++",
"@@@@@@@@@@@@@@@@@@@",
"###################",
"$$$$$$$$$$$$$$$$$$$",
"%%%%%%%%%%%%%%%%%%%",
"        &&         ",
"********==*********",
"--------;;---------",
">>>>>>>>,,>>>>>>>>>",
"'''''''',,'''''''''",
"))))))))!!)))))))))",
"~~~~~~~~~~~~~~~~~~~",
"{{{{{{{{{{{{{{{{{{{",
"]]]]]]]]]]]]]]]]]]]",
"^^^^^^^^^^^^^^^^^^^",
"$$$$$$$$$$$$$$$$$$$",
"///////////////////"};
