/* XPM */
static char * unshadefcs_xpm[] = {
"19 19 19 1",
" 	c #3B424B",
".	c #595E66",
"+	c #4A4F56",
"@	c #454B52",
"#	c #434950",
"$	c #40464F",
"%	c #3E444D",
"&	c #3A4049",
"*	c #373E47",
"=	c #FFFFFF",
"-	c #363D45",
";	c #333A44",
">	c #000000",
",	c #323943",
"'	c #303740",
")	c #2F3640",
"!	c #2D353F",
"~	c #2C333E",
"{	c #373E46",
"                   ",
"...................",
"+++++++++++++++++++",
"@@@@@@@@@@@@@@@@@@@",
"###################",
"$$$$$$$$$$$$$$$$$$$",
"%%%%%%%%%%%%%%%%%%%",
"                   ",
"&&&&&&&&&&&&&&&&&&&",
"*********==********",
"---------==--------",
";;;;;;;;;>>;;;;;;;;",
",,,,,,,,,,,,,,,,,,,",
"'''''''''''''''''''",
")))))))))))))))))))",
"!!!!!!!!!!!!!!!!!!!",
"~~~~~~~~~~~~~~~~~~~",
"$$$$$$$$$$$$$$$$$$$",
"{{{{{{{{{{{{{{{{{{{"};
