/* XPM */
static char * bar_work_xpm[] = {
"48 20 34 1",
" 	c None",
".	c #262626",
"+	c #2F2F2F",
"@	c #303030",
"#	c #2E2E2E",
"$	c #353535",
"%	c #373737",
"&	c #363636",
"*	c #343434",
"=	c #333333",
"-	c #3D3D3D",
";	c #3E3E3E",
">	c #3F3F3F",
",	c #404040",
"'	c #3C3C3C",
")	c #414141",
"!	c #393939",
"~	c #3B3B3B",
"{	c #3A3A3A",
"]	c #383838",
"^	c #323232",
"/	c #313131",
"(	c #2D2D2D",
"_	c #191919",
":	c #1A1A1A",
"<	c #1B1B1B",
"[	c #181818",
"}	c #151515",
"|	c #161616",
"1	c #0E0E0E",
"2	c #0F0F0F",
"3	c #101010",
"4	c #060606",
"5	c #000000",
".+@@@@@@@@@@@@@@@@@@@+++++++@@@@@@@@@@@@@@@@@@@#",
"$%%%%%%%%%%%%&$$$$$$$$$$$$$$$$$$$$$$$$$$$$$$$$*=",
"-;;;>>,,,,,,,,,>>>>>>>>>>>>;-------------------'",
";,))))))))),,,,))))))),)))),;;;;;;;;;;;;;;;;;;;'",
"&!~~''''''''''''''''''~'''~{!!!!!!]]]!!!!!!!!!&*",
"====^^^^^^^^^^^^^^^^^^/^===^^^^^^^^^^^^^^^^^^^^^",
"#+++++++++++++++#(((((((((((((((((((((#+++###+@+",
"_____________________________________________:<:",
"[[[[[[[[[[[[[[[[[[[[[[[[[[[[[[[[[[[[[[[[[[[[[[[[",
"[[[[[[[[[[[[[[[[[[[[[[[[[[[[[[[[[[[[[[[[[[[[[[[[",
"}}}}}}}}}}}}}}}}}}}}}}}}}}}}}}}}}}}}}}}}}}}}}}|}",
"111111111111111123333333333333333333333333333333",
"444444444444444444444444444444444444444444444444",
"555555555555555555555555555555555555555555555555",
"555555555555555555555555555555555555555555555555",
"555555555555555555555555555555555555555555555555",
"555555555555555555555555555555555555555555555555",
"555555555555555555555555555555555555555555555555",
"555555555555555555555555555555555555555555555555",
"555555555555555555555555555555555555555555555555"};
