/* XPM */
static char * bar_xpm[] = {
"95 22 50 1",
" 	c None",
".	c #494949",
"+	c #474747",
"@	c #484848",
"#	c #464646",
"$	c #454545",
"%	c #434343",
"&	c #424242",
"*	c #444444",
"=	c #3F3F3F",
"-	c #3C3C3C",
";	c #3B3B3B",
">	c #3A3A3A",
",	c #393939",
"'	c #3D3D3D",
")	c #3E3E3E",
"!	c #414141",
"~	c #373737",
"{	c #383838",
"]	c #2A2A2A",
"^	c #2B2B2B",
"/	c #2D2D2D",
"(	c #2C2C2C",
"_	c #292929",
":	c #282828",
"<	c #272727",
"[	c #252525",
"}	c #262626",
"|	c #242424",
"1	c #232323",
"2	c #212121",
"3	c #222222",
"4	c #202020",
"5	c #1E1E1E",
"6	c #1F1F1F",
"7	c #1D1D1D",
"8	c #060606",
"9	c #070707",
"0	c #080808",
"a	c #090909",
"b	c #0A0A0A",
"c	c #0B0B0B",
"d	c #0E0E0E",
"e	c #0D0D0D",
"f	c #0C0C0C",
"g	c #0F0F0F",
"h	c #111111",
"i	c #000000",
"j	c #010101",
"k	c #030303",
"...............................................................................................",
"+++++++++++++++++++++++++++++++++++++++++++++++++++++++++++++++++++++++++++++++++++++++++++++++",
"+++++++++++++++++++++++++++++++++++++++++++++++++++++++++++++++++++++++++++++++++++++++++++++++",
"+++++++++++++++++++++++++++++++++++++++++++++++++++++++++++++++++++++++++++++++++++++++++++++++",
"@@@@@@@@@@@@@@@@@@@@@@@@@@@@@@@@@@@@@@@@@@@@@@@@@@@@@@@@@@@@@@@@@@@@@@@@@@@@@@@@@@@@+++++++++++",
"+++++++++++++++++++++++++++++++++++++++++++++++++++++++++++++++++++################+++++@@+++++",
"###$%%%&&&&%****%**$$$$$$$$$$$$$$$$$++++++++++++++++++++++++++++++#*%%%%%%**********$$$$$#+++++",
"=-;>>>>>>>>>>>>>>>>>>>>>>>>>>,>>>>>>---'))))=)))))))))))))))))))))'---------------;;;;;;;-''-)!",
",~~~~~~~~~~~~~~~~~~~~~~~~~~~~~~~~~~~~~~~~{{{{{{{{{{{{{{{{{{{{{{{{{{{~{{{{{{~~~~~~~~~~~~~~~~~~~{",
"]^^^^^^^^^^^^^^]]]]]]]]]]^^^^^^^^^///////(^^^^^^^^(^^^^^^^^^^^^^^^^^^^^^^^^^^^^^^^^^^^^^^^((//^",
"^(((((//((((^^________::___]]_____^^^((((]]]]]^(///(]]]]]]]]]]]]]^^(//((((((((/((((^^^^^^^(((]]",
":]___________<[[[[[[[[[[[[[[[[[[[[[[[}}}}}}}}<_____<[[[[}}}}}}}}<___:<<<<<<<<<<<<<<__:}||1|1111",
"23||3232222245555564224444666666666444666657774221244444444444444333455555555555554232465624666",
"8990aaaaaaaaaaaaaaaaaaaaaaaaaaaaaaaaaaaaaaaaaabbbcdddddddddddddddddebaa000000bcccccfdddddgheeee",
"iiijjjjjjjjjjjjjjjjjjjjjjjjjjjjjjjjjjjjjjjjjjjjjjjjjjjjjjjjjjjjjjjjjiiiiiiiiiikjjjjjjjjjjjkkkkk",
"iiiiiiiiiiiiiiiiiiiiiiiiiiiiiiiiiiiiiiiiiiiiiiiiiiiiiiiiiiiiiiiiiiiiiiiiiiiiiiiiiiiiiiiiiiiiiii",
"iiiiiiiiiiiiiiiiiiiiiiiiiiiiiiiiiiiiiiiiiiiiiiiiiiiiiiiiiiiiiiiiiiiiiiiiiiiiiiiiiiiiiiiiiiiiiii",
"iiiiiiiiiiiiiiiiiiiiiiiiiiiiiiiiiiiiiiiiiiiiiiiiiiiiiiiiiiiiiiiiiiiiiiiiiiiiiiiiiiiiiiiiiiiiiii",
"iiiiiiiiiiiiiiiiiiiiiiiiiiiiiiiiiiiiiiiiiiiiiiiiiiiiiiiiiiiiiiiiiiiiiiiiiiiiiiiiiiiiiiiiiiiiiii",
"iiiiiiiiiiiiiiiiiiiiiiiiiiiiiiiiiiiiiiiiiiiiiiiiiiiiiiiiiiiiiiiiiiiiiiiiiiiiiiiiiiiiiiiiiiiiiii",
"iiiiiiiiiiiiiiiiiiiiiiiiiiiiiiiiiiiiiiiiiiiiiiiiiiiiiiiiiiiiiiiiiiiiiiiiiiiiiiiiiiiiiiiiiiiiiii",
"iiiiiiiiiiiiiiiiiiiiiiiiiiiiiiiiiiiiiiiiiiiiiiiiiiiiiiiiiiiiiiiiiiiiiiiiiiiiiiiiiiiiiiiiiiiiiii"};
