/* XPM */
static char * barfcs_xpm[] = {
"200 30 135 2",
"  	c None",
". 	c #204B24",
"+ 	c #204B25",
"@ 	c #1F4B23",
"# 	c #1F4A23",
"$ 	c #1E4A23",
"% 	c #1E4B23",
"& 	c #1F4B24",
"* 	c #204C25",
"= 	c #214D26",
"- 	c #224E26",
"; 	c #224E27",
"> 	c #234F28",
", 	c #245128",
"' 	c #245028",
") 	c #255028",
"! 	c #26522A",
"~ 	c #27512B",
"{ 	c #26512A",
"] 	c #26522B",
"^ 	c #26512B",
"/ 	c #255129",
"( 	c #255029",
"_ 	c #234E28",
": 	c #234F27",
"< 	c #235028",
"[ 	c #244F28",
"} 	c #265129",
"| 	c #27522B",
"1 	c #245029",
"2 	c #234E26",
"3 	c #1D4721",
"4 	c #1D4720",
"5 	c #1C4720",
"6 	c #1B4620",
"7 	c #1A461F",
"8 	c #1B461F",
"9 	c #1D4821",
"0 	c #1D4822",
"a 	c #1E4822",
"b 	c #1A451F",
"c 	c #1A451E",
"d 	c #1A441D",
"e 	c #1B4720",
"f 	c #1A441E",
"g 	c #1E4922",
"h 	c #1F4A24",
"i 	c #1B471F",
"j 	c #1C4820",
"k 	c #1C4821",
"l 	c #16411A",
"m 	c #164119",
"n 	c #15411A",
"o 	c #16421A",
"p 	c #16421B",
"q 	c #15421A",
"r 	c #17421B",
"s 	c #17431C",
"t 	c #16431B",
"u 	c #17431B",
"v 	c #17421C",
"w 	c #154119",
"x 	c #113E15",
"y 	c #113E16",
"z 	c #103E15",
"A 	c #113F16",
"B 	c #103D15",
"C 	c #113D15",
"D 	c #103C14",
"E 	c #0F3C13",
"F 	c #103C13",
"G 	c #0E3C13",
"H 	c #103E14",
"I 	c #103D14",
"J 	c #0F3D14",
"K 	c #0E3D13",
"L 	c #0F3D13",
"M 	c #0F3E14",
"N 	c #0F3A13",
"O 	c #0F3B13",
"P 	c #0F3913",
"Q 	c #0F3912",
"R 	c #113A15",
"S 	c #113A14",
"T 	c #103A13",
"U 	c #103A14",
"V 	c #113C15",
"W 	c #113C16",
"X 	c #113B14",
"Y 	c #103813",
"Z 	c #103913",
"` 	c #103713",
" .	c #0F3613",
"..	c #0E3612",
"+.	c #0E3613",
"@.	c #0F3713",
"#.	c #103814",
"$.	c #103714",
"%.	c #0D3211",
"&.	c #0C3210",
"*.	c #0C3110",
"=.	c #0B3010",
"-.	c #0B300F",
";.	c #0B3110",
">.	c #0B2F0F",
",.	c #0C3010",
"'.	c #0B2E0F",
").	c #0C2F0F",
"!.	c #0B2F0E",
"~.	c #0A2F0D",
"{.	c #0C2D0E",
"].	c #0C2D0F",
"^.	c #0C2E0F",
"/.	c #0B2E0E",
"(.	c #0C2D10",
"_.	c #0D2D10",
":.	c #0B2D0F",
"<.	c #0B2D0E",
"[.	c #0A2C0D",
"}.	c #0C2C0F",
"|.	c #0C2B0F",
"1.	c #0B290E",
"2.	c #0B2A0E",
"3.	c #0B280E",
"4.	c #0A280E",
"5.	c #0B270E",
"6.	c #0A270E",
"7.	c #0A260D",
"8.	c #0A250D",
"9.	c #09250C",
"0.	c #09240C",
"a.	c #08240B",
"b.	c #08240C",
"c.	c #08250C",
"d.	c #08250B",
". . . . . . . . + . . . . . + + . . . . . . @ @ . . . @ # $ $ % $ # & & * = - ; ; - ; - ; ; ; ; ; - ; ; ; ; ; ; ; - ; - ; ; - ; - ; ; ; ; ; - ; ; ; ; - ; ; ; ; - ; ; - ; - ; ; - ; - ; ; ; ; ; - ; ; ; ; - ; ; - ; - ; ; - ; - ; ; - ; ; - > , ' ' ' ' ) ! ~ { ! { { { ! ] ! { { { { ] { ! { { ! ^ ] { { ! { { { ! ] ! { { ! ] ! { { { { ] { ! ! / { / / / / ( > _ : > > < > : > [ [ [ ' } | ( : < : ' 1 [ 2 [ ",
"3 3 3 3 4 4 3 3 3 3 3 4 4 4 3 3 4 4 4 3 3 3 3 3 4 4 4 3 3 5 5 5 5 5 5 3 3 5 5 5 3 3 5 5 5 5 5 5 5 5 5 5 5 5 5 5 5 5 5 5 5 5 5 5 5 5 5 5 5 5 5 5 5 5 5 5 5 5 5 5 5 5 5 5 5 5 5 5 5 5 5 5 5 5 5 5 5 6 7 7 8 8 8 8 8 5 5 5 5 5 5 5 5 5 5 5 5 5 9 9 9 9 9 9 9 0 a a a a a 0 0 0 a a 0 0 0 a a a a a 0 0 0 a a a a a 0 0 0 a a 0 0 0 a a 0 0 0 0 0 a a a a 0 0 a a a 0 9 4 4 4 3 3 4 4 4 3 3 3 3 9 9 9 5 8 8 b c c d ",
"4 4 4 4 4 4 4 4 4 4 4 4 4 4 4 4 4 4 4 4 4 4 4 4 4 4 4 4 4 4 4 4 4 4 4 4 4 4 4 4 4 4 4 4 4 4 4 4 4 4 4 4 4 4 4 4 4 4 4 4 4 4 4 4 4 4 4 4 4 4 4 4 4 4 4 4 4 4 4 4 4 4 4 4 4 4 4 4 4 4 4 4 4 4 4 4 4 5 5 e e e e e 5 4 4 4 4 4 4 4 4 4 4 4 4 4 9 0 0 0 0 0 0 0 0 0 0 0 0 0 0 0 0 0 0 0 0 0 0 0 0 0 0 0 0 0 0 0 0 0 0 0 0 0 0 0 0 0 0 0 0 0 0 0 0 0 0 0 0 0 0 0 0 0 0 9 4 4 4 4 4 4 4 4 4 4 4 9 9 9 9 9 3 8 7 c c f ",
"4 4 4 4 4 4 4 4 4 4 4 4 4 4 4 4 4 4 4 4 4 4 4 4 4 4 4 4 4 4 4 4 4 4 4 4 4 4 4 4 4 4 4 4 4 4 4 4 4 4 4 4 4 4 4 4 4 4 4 4 4 4 4 4 4 4 4 4 4 4 4 4 4 4 4 4 4 4 4 4 4 4 4 4 4 4 4 4 4 4 4 4 4 4 4 4 4 4 4 4 4 4 4 4 4 4 4 4 4 4 4 4 4 4 4 4 4 4 9 0 0 0 0 0 0 0 0 0 0 0 0 0 0 0 0 0 0 0 0 0 0 0 0 0 0 0 0 0 0 0 0 0 0 0 0 0 0 0 0 0 0 0 0 0 0 0 0 0 0 0 0 0 0 0 0 0 0 9 4 4 4 4 4 4 9 9 9 9 0 0 0 0 0 0 9 3 5 c c c ",
"9 9 9 9 9 9 9 9 9 9 9 9 9 9 9 9 9 9 9 9 9 9 9 9 9 9 9 9 9 9 9 3 3 3 3 3 3 4 4 4 4 4 4 4 4 4 4 4 4 4 4 4 4 4 4 4 4 4 4 4 4 4 4 4 4 4 4 4 4 4 4 4 4 4 4 4 4 4 4 4 4 4 4 4 4 4 4 4 4 4 4 4 4 4 4 4 4 4 4 4 4 4 4 4 4 4 4 4 4 4 4 4 4 4 4 4 4 4 4 3 9 9 9 9 9 9 9 9 9 9 9 9 9 9 9 9 9 9 9 9 9 9 9 9 9 9 9 9 9 9 9 9 9 9 9 9 9 0 0 0 0 0 0 0 0 0 0 0 0 0 0 0 0 0 0 0 0 9 9 9 9 9 9 0 0 0 0 0 0 0 0 0 g g g a 0 3 b b ",
"9 9 9 9 9 9 9 9 9 9 9 9 9 9 9 9 9 9 9 9 9 9 9 9 9 9 9 9 9 9 9 9 9 9 9 9 9 9 9 9 9 9 9 9 9 9 9 9 9 9 9 9 9 9 9 9 9 9 9 9 9 9 9 9 9 9 9 9 9 9 9 9 9 9 9 9 9 9 9 9 9 9 9 9 9 9 9 9 9 9 9 9 9 9 9 9 9 9 9 9 9 9 9 9 9 9 9 9 9 9 9 9 9 9 9 9 9 9 9 9 9 9 9 9 9 9 9 9 9 9 9 9 9 9 9 9 9 9 9 9 9 9 9 9 9 9 9 9 9 9 9 9 9 9 9 9 9 9 9 9 9 9 9 9 9 9 9 9 9 9 9 9 0 0 a a g 9 9 0 0 0 0 0 0 g g g g g g $ # # # # # g 0 5 ",
"9 9 9 9 9 9 9 9 9 9 9 9 9 9 9 9 9 9 9 9 9 9 9 9 9 9 9 9 9 9 9 9 9 9 9 9 9 9 9 9 9 9 9 9 9 9 9 9 9 9 9 9 9 9 9 9 9 9 9 9 9 9 9 9 9 9 9 9 9 9 9 9 9 9 9 0 g g g g g g g g g g g g g g g g g g g g g g g g g g g g g g g g g g g g g g g g g g g g g g g g g g g g g g g g g g g g g g g g g g g g g g g g g g g g g g g g g g g g g g g g g g g g g $ # # # # # # g g g g g # # # # # # # # # # # # # # # # g 0 5 ",
"0 a a a a a a a a a a a a a a a a a a a a a a a a a a a a a a a a a a a a a a a a a a a a a a a a a a a a a a a a a a a a a a a a a a a a a a a a a g $ # # # # # # # # # # # # # # # # # # # # # # # # # # # # # # # # # # # # # # # # # # # # # # # # # # # # # # # # # # # # # # # # # # # # # # # # # # # # # # # # # # # h h h h h . . . . . . . . . . . . . . . . . . . . + + + + + + . . . . . . . # g 9 ",
"c c c c c c c c c c c c c c c c c c c c c c c c c c c c c c c c c c c c c c c c c c c c c c c c c c c c c c c c c c c c c c c c c c c c c c c c c b 7 8 i 8 8 8 8 8 8 8 8 8 8 8 7 8 i i 8 7 8 i i 8 7 8 8 8 8 8 8 8 8 8 8 8 i 8 8 8 7 8 i i 8 7 8 8 8 i 8 8 8 8 8 8 8 8 8 8 8 7 8 i i 8 7 8 i i 8 7 8 8 8 i 8 8 8 e 5 e e 5 e 5 e i e 5 5 e i e 5 5 e i e 5 e 5 5 5 5 e 5 e e 5 e 8 8 7 8 i 5 e i e 5 e 5 8 b c ",
"c c c c c c c c c c c c c c c c c c c c c c c c c c c c c c c c c c c c c c c c c c c c c c c c c c c c c c c c c c c c c c c c c c c c c c c c c c b 7 8 8 8 8 7 8 8 7 8 8 8 8 7 8 8 8 8 7 8 8 8 8 8 8 8 7 8 8 8 8 7 8 8 7 8 8 8 8 7 8 8 8 8 7 8 8 7 8 8 8 8 7 8 8 7 8 8 8 8 7 8 8 8 8 7 8 8 8 8 8 8 8 7 8 8 8 5 i 5 e i 5 e 5 e i e 5 5 e i e 5 e 5 e e 5 i 5 e i 5 e 5 e i e 5 5 e i e 5 5 j j j k e 5 5 8 c ",
"l m n n l n l l l l n l l n l l l l n l l l l n l l l l l l l n l l l l n l l n l l l l n l l l l n l l n l l l l n l l n l l l l n l l l l n l l l o p p p q o o o o q o o q o o o o q l l o l q o o o o o o o q o o q o o o o q o o o o q o o o o q o p q r r r r q r p o r p p p o p p p p o p p p r p p p o s s s s t s t t s s s s t t s s t s s s t s s s s t s t t s p s u u s s s u s s u r r v v p n w ",
"x x x x x y x x x x x x x x x x x x x x x x x x x x y x x x x x x x x x x x x x x x x x x x x y x x x x y x x x x x x x x x x x x x x x x x x x x y y y y y y y y y y y x z z x x x z z x z x x x x y A y y y y y y y y y y y y y y y y y y y y A y y y y A y y y y y y y y y y y y y y y y y y y y A y y y y A A A A A A A y A A A A A A A A A A y x x y x z x y y x x x y x B C z x x x x y y y y y y x x B D ",
"E E E E E E F F F F F F F F F F F F F F F F F F F F F F F F F E E F F F F F F F F F F F E E E E E E E E E E E E E E E E E E E E E E E E E F F F F F F F F D D D D D D F E E E E E E E E E E E E E E E F D D D D D D D D D D D D D D D D D D D D D D D D D D D D D D D D D D D D D F F F F F F F F F F F F F F F D D D D D D D D D D D D D D D D D E E E E E E E E E E E E E G G G G G G G G G G G G G E E G G G ",
"H I H I I H I I I H H H H H H H H H H I I H H I H I H H H I I H I J J J J J J J J J J J J E K K K K K K K K K K K K L J J J M J J I I I H H I H H H H H z z z z z z I H I I I I I H H I I I H H I I I H I I I I H I I I I H I I I I I H H I I I H I H I I H I I I I H I I I I I H H I I I H H I I I H I H I I H H z z z z z z z z z z z H H H H H I I I H I I I I H I I I I H I I I I I H z z H H H H H H J L G ",
"J J J J J J J J J J J J J J J J J J J J J J J J J J J J J J J J J J J J J J J J J J L L L L L L L L L L L L L L L L L L L J J J J J J J J J J J J J J J J J J J J J J J J J J J J J J J J J J J J J J J J J J J J J J J J J J J J J J J J J J J J J J J J J J J J J J J J J J J J J J J J J J J J J J J J J J J J J J J J J J J J J J J J J J J J J J J J J J J J J J J J J J J J J J N O O O O N O O O O P P Q ",
"R R R R R R R R R R R R R R R R R R R R R R R R R R R R R R R R S S S S S S S S S T T T T T T T T T T T T T T T T T T T T T T T T T T T T T T S R R R R R S S S S S S S R R R R R R R R R R R R R S S S S S S S S S S S S S R R R R R S S S S S S S S S S S S S S S S S S S S S S S R R R R S S S S S S S S S S S S S S S S S S S S S S S S S S S S S S S S S S S S S S S S S S S S S S S S S S S S S S S S S U ",
"V V V V V V V V V V V V V V V V V V V V V V V V V V V V V V V V V V V V V V V V S U U U U U U U U U U U U U U U U U U U U U U U U U U U U U U S V V V V V V V V V V V V V V V V V V V V V V V V V V V V V V V V V V V V V V V V V V V V V V V V V V V V V V V V V V V V V V V V V V V V V V V V V V V V V V V V V V V V V V V V V V V V V V V V V V V V V V V V V W W W W W W W W V V V V V V V V V V V V V X S ",
"Y Z Z Y Y `  . . . . . . . . . . . . . . . . . . . . . . . . . . . . . . . . . . .......+.+...........+...............+...........+.+........... .@.@.@. . . . . . . . . . . . . . . . . . . .@.@.@.@.@.@.@.@.@.@.@.@.@.@.@. .@.@.@.@. .@.@.@.@. .@.@.@.@.@.@.@.@.@.@.@.@.@.@.@. .@.@.@.@. .@.@.@.@.@.@.@.@.@.@.@.@.@.@.@. .@.@.@.@. .@.@.@.@. .@.@.@.@.@.@.@.@.` #.#.Y #.#.#.$.Y @.@.@. .@.@.@.@. .@.@.@.@. .+.",
"%.%.&.&.&.*.*.*.=.=.=.*.=.=.=.=.=.=.=.=.=.=.=.=.=.*.*.=.=.=.*.*.=.=.=.=.=.=.=.=.-.-.-.-.-.;.-.-.-.-.-.;.;.-.-.>.-.-.;.-.-.-.>.-.-.-.-.-.-.-.-.-.;.*.,.*.,.*.*.=.=.=.=.=.*.=.=.=.=.=.=.=.*.=.=.;.;.;.*.*.-.-.-.;.;.-.-.-.-.-.=.=.=.=.=.=.=.=.*.=.=.=.=.=.*.*.=.=.=.=.=.*.=.=.=.=.=.=.=.=.=.=.=.=.-.;.;.-.-.>.;.;.-.-.-.-.>.-.-.-.-.-.-.-.-.;.-.-.-.-.-.;.;.-.-.>.-.-.*.-.-.-.-.-.-.-.-.-.-.-.-.;.-.-.-.=.=.*.;.-.",
"'.).).>.>.>.>.>.>.>.>.>.>.>.>.>.).>.>.>.>.>.).).>.>.>.>.>.).>.>.>.>.>.>.>.>.>.>.>.>.).>.>.>.>.>.).).>.>.>.>.>.).>.>.>.>.>.>.>.).>.>.>.>.>.).).>.>.>.>.>.>.>.>.>.>.>.>.>.>.>.>.>.>.>.>.>.>.>.>.>.>.>.!.!.!.!.!.!.!.!.!.!.!.!.>.>.>.>.>.>.>.>.>.>.>.>.>.>.>.>.>.>.>.>.>.>.>.>.>.>.>.>.>.>.>.!.!.!.!.!.!.!.!.!.!.!.!.!.!.!.!.!.!.!.!.!.!.!.!.!.!.!.!.!.!.!.!.!.!.!.>.>.>.>.>.>.>.>.>.>.>.>.>.>.>.>.>.>.>.>.>.!.~.~.",
"{.].].].].].].].].].].].].].].].].].].].].].].].].].].].].].].].].].].].].].].].].].].].].].].].].].].].].].].].].].].].].].].].].].].].].].].].].].].].].].^.^.^.^.^.^.^.^.^.^.^.^.^.^.^.'.>.>.>.>.!.!.!.!.!.!.!.!.!.!.!.>.>.>.>.>.>.>.>.>.>.>.>.>.>.>.>.>.>.>.>.>.>.>.>.>.>.>.>.>.>.>.>.>.>.>.>.>.>.>.>.>.>.>.>.>.>.>.>.>.>.>.>.>.>.>.>.>.>.>.>.>.>.>.>.>.>.>.>.>.>.>.>.>.>.>.>.>.>.>.>.>.>.>.>.>.>.>.'./././.",
"(.(.(._._._._._._._._._._._._._._._._._._._._._._._._._._._._._._._._._._._._._._._._._._._._._._._._._._._._._._._._._._._._._._._._._._._._._._._._._._._._._._._._._._._._._._._._._.].].].].].].:.:.:.:.:.:.:.:.:.'.'.'.'.'.'.'.'.'.'.'.'.'.'.'.'.'.'.'.'.'.'.'.'.'.'.'.'.'.>.>.>.>.>.>.>.>.>.>.>.>.>.>.>.>.>.>.>.>.>.>.>.!.!.!.!.!.!.!.!.!.!.!.!.!.!.!.!.!.!.!.!.!.!.!.!.!.!.!.!.!.!.!.>.'.'.'.:.<.<.<.[.[.",
"(.(.(.(.(.(.(.(.(.(.(.(.(.(.(.(.(.(.(.(.(.(.(.(.(.(.(.(.(.(.(.(.(.(.(.(.(.(.(.(.(.(.(.(.(.(.(.(.(.(.(.(.(.(.(.(.(.(.(.(.(.(.(.(.(.(.(.(.(.(.(.(.(.(.(.(.(.(.(.(.(.(.(.(.(.(.(.(.(.(.(.(.(.(.(.(.(.(.(.(.(.(.(.(.(.(.(.(.(.:.:.:.:.:.:.:.:.:.:.:.:.:.:.:.:.:.:.:.:.:.:.:.:.:.:.:.:.:.:.:.:.:.:.:.:.:.:.:.:.:.:.:.:.:.:.:.:.:.:.:.:.:.:.:.:.:.:.:.:.:.:.:.:.:.:.:.:.:.:.:.:.:.:.:.:.:.:.:.:.:.:.:.:.(.(.(.(.(.(.(.",
"(.(.(.(.(.(.(.(.(.(.(.(.(.(.(.(.(.(.(.(.(.(.(.(.(.(.(.(.(.(.(.(.(.(.(.(.(.(.(.(.(.(.(.(.(.(.(.(.(.(.(.(.(.(.(.(.(.(.(.(.(.(.(.(.(.(.(.(.(.(.(.(.(.(.(.(.(.(.(.(.(.(.(.(.(.(.(.(.(.(.(.(.(.(.(.(.(.(.(.(.(.(.(.(.(.(.(.(.(.(.(.(.(.(.(.(.(.(.(.(.(.(.(.(.(.(.(.(.(.(.(.(.(.(.(.(.(.(.(.(.(.(.(.(.(.(.(.(.(.(.(.(.(.(.(.(.(.(.(.(.(.(.(.(.(.(.(.(.(.(.(.(.(.(.(.(.(.(.(.(.(.(.(.(.(.(.(.(.(.(.(.(.(.(.(.(.(.(.(.(.",
"(.(.(._._._._._._._._._._._._._._._._._._._._._._._._._._._._._._._._._._._._._._._._._._._._._._._._._._._._._._._._._._._._._._._._._._._._._._._._._._._._._._._._._._._._._._._._._._._._._._._._._._._._._._._._._._._._._._._._._._._._._._._._._._._._._._._._._._._._._._._._._._._._._._._._._._._._._._._._._._._._._._._._._._._._._._._._._._._._._._._._._._._._._._._._._._._._._._._._._._._._._.",
"_._._._._._._._._._._._._._._._._._._._._._._._._._._._._._._._._._._._._._._._._._._._._._._._._._._._._._._._._._._._._._._._._._._._._._._._._._._._._._._._._._._._._._._._._._._._._._._._._._._._._._._._._._._._._._._._._._._._._._._._._._._._._._._._._._._._._._._._._._._._._._._._._._._._._._._._._._._._._._._._._._._._._._._._._._._._._._._._._._._._._._._._._._._._._._._._._._._._._._._._.",
"(.(.(.(.(.(.(.(.(.(.(.(.(.(.(.(.(.(.(.(.(.(.(.(.(.(.(.(.(.(.(.(.(.(.(.(.(.(.(.(.(.(.(.(.(.(.(.(.(.(.(.(.(.(.(.(.(.(.(.(.(.(.(.(.(.(.(.(.(.(.(.(.(.(.(.(.(.(.(.(.(.(.(.(.(.(.(.(.(.(.(.(.(.(.(.(.(.(.(.(.(.(.(.(.(.(.(.(.(.(.(.(.(.(.(.(.(.(.(.(.(.(.(.(.(.(.(.(.(.(.(.(.(.(.(.(.(.(.(.(.(.(.(.(.(.(.(.(.(.(.(.(.(.(.(.(.(.(.(.(.(.(.(.(.(.(.(.(.(.(.(.(.(.(.(.(.(.(.(.(.(.(.(.(.(.(.(.(.(.(.(.(.(.(.(.(.(.(.(.(.",
"}.}.}.}.}.}.}.}.}.}.}.}.}.}.}.}.}.}.}.}.}.}.}.}.}.}.}.}.}.}.}.}.}.}.}.}.}.}.}.}.}.}.}.].(.(.(.(.(.(.(.(.(.(.(.(.(.(.(.(.(.(.(.(.(.(.(.(.(.(.(.(.(.(.(.(.(.(.(.(.].}.}.}.}.].(.(.(.(.(.(.(.(.(.(.(.(.(.(.(.(.(.(.(.(.}.}.}.}.}.}.}.}.}.}.}.}.}.}.}.}.}.}.}.}.}.}.}.}.}.}.}.}.}.}.}.}.}.}.}.}.}.}.}.}.}.}.}.}.}.}.}.}.}.}.}.}.}.}.}.}.}.}.}.}.}.}.}.}.}.}.}.}.}.}.}.}.}.}.}.|.|.|.|.|.|.|.|.|.|.|.|.|.|.|.|.|.|.|.",
"1.1.1.1.2.2.2.2.2.2.2.2.2.2.2.2.2.2.2.2.2.2.2.1.2.1.2.2.2.2.2.2.2.2.2.2.2.2.2.2.2.1.2.1.2.2.1.2.2.2.2.1.1.2.2.2.2.1.1.1.1.1.1.1.1.1.2.1.1.1.1.2.1.2.2.2.2.1.1.1.1.1.1.1.1.1.2.2.2.2.2.2.2.2.2.2.2.2.2.2.2.2.2.2.2.2.1.1.1.1.1.1.1.2.1.1.1.1.2.1.1.1.1.1.1.1.1.1.1.1.1.1.1.1.2.1.1.1.1.2.1.2.2.1.2.1.2.2.2.1.1.1.1.1.2.1.1.1.1.2.2.1.1.1.1.3.3.3.3.3.3.3.3.3.3.3.3.3.3.3.3.3.3.3.3.3.3.3.3.4.3.3.3.3.3.4.3.3.5.6.",
"7.7.8.8.9.0.0.a.a.a.a.a.a.a.a.a.a.a.a.a.a.a.a.a.a.a.a.a.a.a.a.a.a.b.b.b.a.a.a.a.b.b.b.a.b.b.b.b.a.b.b.a.b.a.b.b.b.a.a.b.b.b.a.a.b.b.b.b.b.a.b.b.b.b.a.b.b.a.b.a.b.b.b.a.a.b.b.b.b.b.a.b.c.c.c.a.c.c.c.c.d.c.c.b.a.a.b.b.b.a.a.b.b.b.b.b.a.b.b.b.b.a.b.b.a.b.a.b.b.b.a.a.b.b.b.b.b.a.b.b.b.b.a.b.b.b.b.a.b.b.a.b.a.b.b.b.a.a.b.a.a.b.a.a.a.a.a.a.a.a.a.a.a.a.a.a.a.a.a.a.a.a.a.a.a.a.a.a.a.a.a.a.a.a.a.a.a.a.a.a."};
