/* XPM */
static char * bullet_xpm[] = {
"19 19 7 1",
" 	c None",
".	c #75C677",
"+	c #48FE4C",
"@	c #70CD72",
"#	c #47FE4B",
"$	c #85B486",
"%	c #6CD16E",
"                   ",
"                   ",
"                   ",
"                   ",
"                   ",
"                   ",
"            .      ",
"            +@     ",
"             #$    ",
"              +$   ",
"             #%    ",
"            #%     ",
"            $      ",
"                   ",
"                   ",
"                   ",
"                   ",
"                   ",
"                   "};
