/* XPM */
static char * bullet_hilite_xpm[] = {
"19 19 6 1",
" 	c None",
".	c #75C677",
"+	c #49FD4D",
"@	c #47FE4B",
"#	c #7EBB80",
"$	c #79C07A",
"                   ",
"                   ",
"                   ",
"                   ",
"                   ",
"                   ",
"             .     ",
"             +.    ",
"              @.   ",
"               @#  ",
"              @$   ",
"             @$    ",
"             .     ",
"                   ",
"                   ",
"                   ",
"                   ",
"                   ",
"                   "};
