/* XPM */
static char * close_pressed_xpm[] = {
"20 20 118 2",
"  	c None",
". 	c #3D3D3D",
"+ 	c #3E3E3E",
"@ 	c #3B3B3B",
"# 	c #383838",
"$ 	c #393939",
"% 	c #363636",
"& 	c #373737",
"* 	c #353535",
"= 	c #3C3C3C",
"- 	c #414141",
"; 	c #3F3F3F",
"> 	c #444444",
", 	c #474747",
"' 	c #446344",
") 	c #466846",
"! 	c #466146",
"~ 	c #425E42",
"{ 	c #434343",
"] 	c #464646",
"^ 	c #494949",
"/ 	c #47634B",
"( 	c #48684B",
"_ 	c #486D4B",
": 	c #465B46",
"< 	c #464B46",
"[ 	c #424242",
"} 	c #47754B",
"| 	c #47F64B",
"1 	c #47F54D",
"2 	c #47704B",
"3 	c #476647",
"4 	c #4D4D4D",
"5 	c #47514B",
"6 	c #477F4B",
"7 	c #47FE4B",
"8 	c #47FD4B",
"9 	c #47644B",
"0 	c #454545",
"a 	c #484848",
"b 	c #4A4A4A",
"c 	c #445144",
"d 	c #47804B",
"e 	c #47F54B",
"f 	c #47F84B",
"g 	c #47984B",
"h 	c #47584B",
"i 	c #475748",
"j 	c #47854B",
"k 	c #444A44",
"l 	c #476048",
"m 	c #47794B",
"n 	c #4C724C",
"o 	c #478747",
"p 	c #415441",
"q 	c #000000",
"r 	c #060606",
"s 	c #010601",
"t 	c #104310",
"u 	c #47FB4B",
"v 	c #47F94B",
"w 	c #48FA4E",
"x 	c #104511",
"y 	c #031403",
"z 	c #050606",
"A 	c #010101",
"B 	c #050505",
"C 	c #0C0C0C",
"D 	c #0D0D0D",
"E 	c #080808",
"F 	c #041004",
"G 	c #0C3B0D",
"H 	c #47FA4C",
"I 	c #49F751",
"J 	c #49FA4F",
"K 	c #0B330D",
"L 	c #072307",
"M 	c #000001",
"N 	c #030303",
"O 	c #000103",
"P 	c #040A04",
"Q 	c #0D3C0E",
"R 	c #47FA4B",
"S 	c #47FC4B",
"T 	c #124012",
"U 	c #0F4212",
"V 	c #0D380D",
"W 	c #051F05",
"X 	c #000100",
"Y 	c #071D07",
"Z 	c #0F3E10",
"` 	c #0E380E",
" .	c #071C07",
"..	c #081908",
"+.	c #0E3D0F",
"@.	c #082B08",
"#.	c #0C340C",
"$.	c #000102",
"%.	c #000002",
"&.	c #0B320C",
"*.	c #0F3B10",
"=.	c #051805",
"-.	c #000201",
";.	c #000508",
">.	c #030D03",
",.	c #0A2E0C",
"'.	c #114313",
").	c #000204",
"!.	c #072007",
"~.	c #092A09",
"{.	c #081E09",
"].	c #0A210A",
"^.	c #092809",
"/.	c #071B07",
"(.	c #000206",
"_.	c #000200",
":.	c #000306",
"<.	c #000307",
". + + + + + + + + + + + + + + @ # $ $ # ",
"$ # # $ $ $ $ $ $ $ $ $ $ $ $ $ # % # # ",
"& & & & & & & & & & & & & # # # $ * & * ",
"& % % % % % % % % & # # # & & % % % & * ",
"= = . . = = = . = @ = @ . + @ @ + @ @ = ",
"- ; > , ' ) ! ~ { , ] ^ / ( _ : < { [ ; ",
"[ - [ { } | 1 2 3 4 4 5 6 7 8 9 0 a b 0 ",
"[ 0 ] { c d e f g h i 2 7 7 j k a ] b ^ ",
"= ; > - 0 > l f 7 m n 8 8 o p - [ - , [ ",
"q q r r r q s t f u v w x y z A B C D E ",
"q q q q q q F G u H I J K L M q q q q N ",
"q q q q O P Q R S T U 7 8 V W X q q q q ",
"q q q q Y Z 8 8 `  ...+.8 8 @.#.$.q q q ",
"q q q %.&.7 8 *.=.-.;.>.,.8 S '.q q q q ",
"q q q ).!.~.{.].M q q q ^.t &./.q q q q ",
"(.q q q _._.q q q q q q q q q q q q q q ",
"q q q q q q q q q q q q q q q q q q q q ",
"q q q q q q q q q q q q q q q q q q q :.",
"q q q q q q q q q q q q q q q q q q q q ",
"q q q q q q q q q q q q q M M M M M M <."};
