/* XPM */
static char * close_xpm[] = {
"20 20 40 1",
" 	c None",
".	c #262626",
"+	c #2F2F2F",
"@	c #303030",
"#	c #353535",
"$	c #373737",
"%	c #3D3D3D",
"&	c #3E3E3E",
"*	c #404040",
"=	c #414141",
"-	c #363636",
";	c #393939",
">	c #3B3B3B",
",	c #333333",
"'	c #2E2E2E",
")	c #4EF654",
"!	c #4EF555",
"~	c #47FE4B",
"{	c #47FD4B",
"]	c #191919",
"^	c #4DF554",
"/	c #4BF851",
"(	c #181818",
"_	c #4CF851",
":	c #47FD4C",
"<	c #4BF852",
"[	c #47FB4B",
"}	c #47F94B",
"|	c #48FA4E",
"1	c #151515",
"2	c #47FB4D",
"3	c #47FA4C",
"4	c #49F751",
"5	c #49FA4F",
"6	c #0E0E0E",
"7	c #4BFA52",
"8	c #48FC4E",
"9	c #060606",
"0	c #000000",
"a	c #47FC4B",
".+@@@.+@@@.+@@@.+@@@",
"#$$$$#$$$$#$$$$#$$$$",
"%&&&&%&&&&%&&&&%&&&&",
"&*===&*===&*===&*===",
"-;>>>-;>>>-;>>>-;>>>",
",,,,,,,,,,,,,,,,,,,,",
"'++++)!'+++++~{'++++",
"]]]]]]^/]]]]~~]]]]]]",
"(((((((_~((::(((((((",
"((((((((<[}|((((((((",
"11111111234511111111",
"66666667866~{6666666",
"999999::9999{{999999",
"00000~:000000{a00000",
"00000000000000000000",
"00000000000000000000",
"00000000000000000000",
"00000000000000000000",
"00000000000000000000",
"00000000000000000000"};
