/* XPM */
static char * grip_focus_xpm[] = {
"13 13 23 1",
" 	c None",
".	c #393939",
"+	c #383838",
"@	c #414141",
"#	c #3F3F3F",
"$	c #404040",
"%	c #424242",
"&	c #363636",
"*	c #323232",
"=	c #333333",
"-	c #303030",
";	c #323236",
">	c #2D2E2F",
",	c #282828",
"'	c #292929",
")	c #2B2B2B",
"!	c #2D2D2D",
"~	c #2A2A2A",
"{	c #0B0B0B",
"]	c #090909",
"^	c #070707",
"/	c #080808",
"(	c #000000",
".++++++++++++",
"@@@@@@@@@@@@@",
"#####$%$#####",
"+++++...+++++",
"&&***===**---",
";>,'')!)''~~~",
"{{{{{{{{{{{{{",
"]]]]]]]]]]]]]",
"^^^^^^^^^////",
"(((((((((((((",
"(((((((((((((",
"(((((((((((((",
"((((((((((((("};
