/* XPM */
static char * max_xpm[] = {
"20 20 49 1",
" 	c None",
".	c #262626",
"+	c #2F2F2F",
"@	c #303030",
"#	c #353535",
"$	c #373737",
"%	c #3D3D3D",
"&	c #3E3E3E",
"*	c #3F3F3F",
"=	c #404040",
"-	c #414141",
";	c #363636",
">	c #393939",
",	c #3B3B3B",
"'	c #3C3C3C",
")	c #333333",
"!	c #323232",
"~	c #2E2E2E",
"{	c #47FB4B",
"]	c #45FC49",
"^	c #45FA49",
"/	c #46FB4A",
"(	c #47FD4B",
"_	c #191919",
":	c #43F246",
"<	c #47F94B",
"[	c #47FE4B",
"}	c #181818",
"|	c #42F946",
"1	c #4BF951",
"2	c #47FB4D",
"3	c #47FA4B",
"4	c #47FD4C",
"5	c #46FD4B",
"6	c #4AFC4F",
"7	c #46F94A",
"8	c #151515",
"9	c #47FC4B",
"0	c #46FE4A",
"a	c #46F84B",
"b	c #0E0E0E",
"c	c #48FA4E",
"d	c #46FC4A",
"e	c #060606",
"f	c #47FC4C",
"g	c #48F84F",
"h	c #000000",
"i	c #000001",
"j	c #47F94D",
".+@@@@.+@@@@@@@.+@@@",
"#$$$$$#$$$$$$$$#$$$$",
"%&&&**%&&&**&**%&&&&",
"&=----&=-------&=---",
";>,,'';>,,'','';>,,,",
"))))!!))))!!)!!)))))",
"~+++++~++{]^/((~++++",
"_______:__<[[[<_____",
"}}}}}}}}|}}12[3}}}}}",
"}}}}}}4}}5}}6[7}}}}}",
"888888(9}}0}}{a88888",
"bbbbbb39c}}d}}4bbbbb",
"eeeeeef(3gee0eeeeeee",
"hhhhhh9[({9hh0ihhhhh",
"hhhhhhj(f9{[hhhhhhhh",
"hhhhhhhhhhhhhhhhhhhh",
"hhhhhhhhhhhhhhhhhhhh",
"hhhhhhhhhhhhhhhhhhhh",
"hhhhhhhhhhhhhhhhhhhh",
"hhhhhhhhhhhhhhhhhhhh"};
