/* XPM */
static char * max_pressed_xpm[] = {
"20 20 131 2",
"  	c None",
". 	c #353535",
"+ 	c #373737",
"@ 	c #3A3A3A",
"# 	c #383838",
"$ 	c #3B3B3B",
"% 	c #3F3F3F",
"& 	c #3E3E3E",
"* 	c #3F433F",
"= 	c #3E433E",
"- 	c #3F443F",
"; 	c #3D3D3D",
"> 	c #3C3C3C",
", 	c #393939",
"' 	c #474747",
") 	c #414141",
"! 	c #404040",
"~ 	c #424242",
"{ 	c #484848",
"] 	c #4C5A4C",
"^ 	c #4A624B",
"/ 	c #476A48",
"( 	c #3F6740",
"_ 	c #405D40",
": 	c #405141",
"< 	c #405641",
"[ 	c #415742",
"} 	c #3F5540",
"| 	c #3E593F",
"1 	c #505050",
"2 	c #454545",
"3 	c #4B4B4B",
"4 	c #4B614B",
"5 	c #475E47",
"6 	c #4D644D",
"7 	c #454F45",
"8 	c #47FB4B",
"9 	c #45FC49",
"0 	c #45FA49",
"a 	c #46FB4A",
"b 	c #47FD4B",
"c 	c #4E624E",
"d 	c #475B49",
"e 	c #494949",
"f 	c #444444",
"g 	c #455F45",
"h 	c #49644A",
"i 	c #4F6E4F",
"j 	c #43F246",
"k 	c #525252",
"l 	c #575D57",
"m 	c #47F94B",
"n 	c #47FE4B",
"o 	c #4A724B",
"p 	c #477049",
"q 	c #4C4C4C",
"r 	c #4D4D4D",
"s 	c #496E4B",
"t 	c #4D6B4D",
"u 	c #545454",
"v 	c #42F946",
"w 	c #575757",
"x 	c #585858",
"y 	c #4BF951",
"z 	c #47FB4D",
"A 	c #47FA4B",
"B 	c #4C6F4C",
"C 	c #4B6F4B",
"D 	c #4A4A4A",
"E 	c #18181A",
"F 	c #131313",
"G 	c #111111",
"H 	c #262626",
"I 	c #346435",
"J 	c #1D4C1E",
"K 	c #47FD4C",
"L 	c #000000",
"M 	c #46FD4B",
"N 	c #4AFC4F",
"O 	c #46F94A",
"P 	c #1E3D1E",
"Q 	c #264527",
"R 	c #1E1E1E",
"S 	c #1D1D1D",
"T 	c #191919",
"U 	c #183219",
"V 	c #47FC4B",
"W 	c #46FE4A",
"X 	c #46F84B",
"Y 	c #203D21",
"Z 	c #213324",
"` 	c #1C1C1C",
" .	c #1A1A1A",
"..	c #0E1113",
"+.	c #0E0F10",
"@.	c #0F0F0F",
"#.	c #1B441B",
"$.	c #112F11",
"%.	c #48FA4E",
"&.	c #46FC4A",
"*.	c #000200",
"=.	c #173618",
"-.	c #1F3E1F",
";.	c #171717",
">.	c #010102",
",.	c #020202",
"'.	c #04060A",
").	c #030303",
"!.	c #0B290C",
"~.	c #09240A",
"{.	c #47FC4C",
"].	c #48F84F",
"^.	c #082009",
"/.	c #092309",
"(.	c #020304",
"_.	c #040404",
":.	c #08200A",
"<.	c #47F94D",
"[.	c #051506",
"}.	c #0B2A0C",
"|.	c #0D300E",
"1.	c #010702",
"2.	c #103D11",
"3.	c #134614",
"4.	c #0B2B0C",
"5.	c #092109",
"6.	c #0C2E0D",
"7.	c #071B07",
"8.	c #000102",
"9.	c #09230A",
"0.	c #051305",
". . . . . . . . . . . . . . . . . . . . ",
". . . . . . . . . . . . . . . . . . . . ",
". . . . . . . . . . . . . . . . . . . . ",
". . . . . . . . . . . . . . . . . . . . ",
"+ + @ @ # # # # $ % & * = - = = ; & > , ",
"' ) % ! ~ { ] ^ / ( _ : < < [ } | ~ ~ ! ",
"1 ' 2 3 3 4 5 6 7 8 9 0 a b b c d ' ) ) ",
"e e 3 f g h i j k l m n n n m o p ' e q ",
"r e q 3 s t q u v w x y z n A B C 3 ' D ",
"E F G H I J K L L M L L N n O P Q R S T ",
"G G G G U U b V L L W L L 8 X Y Z `  .T ",
"..+.@.@.#.$.A V %.L L &.*.L K =.-.T ;.F ",
">.,.'.).!.~.{.b A ].L L W L ^./.(.,._.).",
"L L L L ~.~.V n b 8 V L L W :.~.L L L L ",
"L L L L ~.~.<.b {.V 8 n [.}.|.1.L L L L ",
"L L L L 2.3.4.4.4.4.4.5.6.|.7.L L L L L ",
"8.L L L [.9.4.4.4.4.4.5.0.L L L L L L L ",
"L L L L L L L L L L L L L L L L L L L L ",
"L L L L L L L L L L L L L L L L L L L L ",
"L L L L L L L L L L L L L L L L L L L L "};
