/* XPM */
static char * min_xpm[] = {
"20 20 35 1",
" 	c None",
".	c #262626",
"+	c #2F2F2F",
"@	c #303030",
"#	c #353535",
"$	c #373737",
"%	c #3D3D3D",
"&	c #3E3E3E",
"*	c #3F3F3F",
"=	c #404040",
"-	c #414141",
";	c #363636",
">	c #393939",
",	c #3B3B3B",
"'	c #3C3C3C",
")	c #333333",
"!	c #323232",
"~	c #2E2E2E",
"{	c #191919",
"]	c #181818",
"^	c #000000",
"/	c #47FE4B",
"(	c #47FD4B",
"_	c #47FC4B",
":	c #47FC4C",
"<	c #47FA4B",
"[	c #47FD4C",
"}	c #151515",
"|	c #020202",
"1	c #4AF752",
"2	c #0E0E0E",
"3	c #47FB4B",
"4	c #49FB4F",
"5	c #060606",
"6	c #49FB4E",
".+@@@.+@@.+@@.+@.+@@",
"#$$$$#$$$#$$$#$$#$$$",
"%&&&*%&&&%&&&%&&%&&&",
"&=---&=--&=--&=-&=--",
";>,,';>,,;>,,;>,;>,,",
"))))!)))))))))))))))",
"~++++~+++~+++~++~+++",
"{{{{{{{{{{{{{{{{{{{{",
"]]]]]^^^^^^^^^^^]]]]",
"]]]]]^/(__(:<([^]]]]",
"}}}}}^|_////<1|^}}}}",
"222222||3((34||22222",
"5555555||__6||555555",
"^^^^^^^^||/||^^^^^^^",
"^^^^^^^^^|||^^^^^^^^",
"^^^^^^^^^^^^^^^^^^^^",
"^^^^^^^^^^^^^^^^^^^^",
"^^^^^^^^^^^^^^^^^^^^",
"^^^^^^^^^^^^^^^^^^^^",
"^^^^^^^^^^^^^^^^^^^^"};
