/* XPM */
static char * min_pressed_xpm[] = {
"20 20 63 1",
" 	c None",
".	c #3D3D3D",
"+	c #3E3E3E",
"@	c #393939",
"#	c #383838",
"$	c #373737",
"%	c #363636",
"&	c #3C3C3C",
"*	c #414141",
"=	c #3F3F3F",
"-	c #444444",
";	c #424242",
">	c #454545",
",	c #464646",
"'	c #1C2A1C",
")	c #203F21",
"!	c #1F3D20",
"~	c #1D311D",
"{	c #224923",
"]	c #0D300E",
"^	c #0B2B0C",
"/	c #0B280B",
"(	c #103F12",
"_	c #224A22",
":	c #000000",
"<	c #060606",
"[	c #204421",
"}	c #0E340E",
"|	c #47FE4B",
"1	c #47FD4B",
"2	c #47FC4B",
"3	c #47FC4C",
"4	c #47FA4B",
"5	c #47FD4C",
"6	c #1F3C1F",
"7	c #182619",
"8	c #0E330F",
"9	c #0E2F0F",
"0	c #4AF752",
"a	c #0F3210",
"b	c #134413",
"c	c #204B21",
"d	c #47FB4B",
"e	c #49FB4F",
"f	c #0D2A0D",
"g	c #144615",
"h	c #152E16",
"i	c #103711",
"j	c #48FB4D",
"k	c #0D2D0E",
"l	c #134014",
"m	c #113212",
"n	c #144716",
"o	c #103510",
"p	c #0E300F",
"q	c #123F13",
"r	c #051305",
"s	c #0F3510",
"t	c #0D310E",
"u	c #031003",
"v	c #000206",
"w	c #000700",
"x	c #000500",
".++.++.++.++.++.++++",
"@##@##@##@##@##@####",
"$$$$$$$$$$$$$$$$$$$$",
"$%%$%%$%%$%%$%%$%%%%",
"&&.&&.&&.&&.&&.&&.&.",
"*=-*=-*=-*=-*=-*=-=-",
";*;;*;;*;;*;;*;;*;*;",
";>,;>'))))))))!~;>;>",
"&=-&{]^^^^^^^^/(_&&&",
"::<<[}|12213415/6:<<",
"::::7892||||40abc:::",
"::::::a9d11defgh::::",
":::::::ia22jklm:::::",
"::::::::no|pqr::::::",
":::::::::9stu:::::::",
"v::::::::wx:::::::::",
"::::::::::::::::::::",
"::::::::::::::::::::",
"::::::::::::::::::::",
"::::::::::::::::::::"};
