/* XPM */
static char * selected_xpm[] = {
"16 16 41 1",
" 	c None",
".	c #48FE4B",
"+	c #4FFD53",
"@	c #5AFC5D",
"#	c #5EFB61",
"$	c #48FF4C",
"%	c #51FD54",
"&	c #5FF863",
"*	c #49FF4D",
"=	c #5BFF5F",
"-	c #52FC56",
";	c #50FF54",
">	c #47FF4B",
",	c #5DFA61",
"'	c #5AFF5D",
")	c #57FF5B",
"!	c #5BFA5E",
"~	c #4BFF4F",
"{	c #66FF69",
"]	c #51FF54",
"^	c #63FF67",
"/	c #58FB5B",
"(	c #64FF67",
"_	c #60FF64",
":	c #5EFA62",
"<	c #59FF5C",
"[	c #5EFF62",
"}	c #6AF96D",
"|	c #64F967",
"1	c #5BFF5E",
"2	c #63FF66",
"3	c #6BF86F",
"4	c #70F873",
"5	c #5CFF5F",
"6	c #6FF772",
"7	c #76F778",
"8	c #58FF5C",
"9	c #71F874",
"0	c #6EF971",
"a	c #56FB5A",
"b	c #5AFC5E",
"                ",
"                ",
"                ",
" .+@@@@@@# $    ",
" %       &*=    ",
" -       ;>>    ",
" ,      '>>)    ",
" ! ~   {>]^     ",
" / (( _>>_      ",
" : >><>>[}      ",
" | 1>>>2 3      ",
" 4  5>)  6      ",
" 7   8   9      ",
" 0007a@b+#      ",
"                ",
"                "};
