/* XPM */
static char * sticky_xpm[] = {
"20 20 38 1",
" 	c None",
".	c #262626",
"+	c #2F2F2F",
"@	c #303030",
"#	c #353535",
"$	c #373737",
"%	c #3D3D3D",
"&	c #3E3E3E",
"*	c #3F3F3F",
"=	c #404040",
"-	c #414141",
";	c #363636",
">	c #393939",
",	c #3B3B3B",
"'	c #3C3C3C",
")	c #333333",
"!	c #323232",
"~	c #2E2E2E",
"{	c #000000",
"]	c #191919",
"^	c #47FC4B",
"/	c #47FB4B",
"(	c #47FE4C",
"_	c #48FC4D",
":	c #48FB4D",
"<	c #4CF653",
"[	c #181818",
"}	c #47FE4B",
"|	c #47FD4C",
"1	c #151515",
"2	c #48FD4C",
"3	c #47FD4B",
"4	c #4AF950",
"5	c #0E0E0E",
"6	c #060606",
"7	c #47FC4C",
"8	c #4BF950",
"9	c #49FB4E",
".+@@@@.+@@@@@@.+@@@@",
"#$$$$$#$$$$$$$#$$$$$",
"%&&&**%&&&****%&&&**",
"&=----&=------&=----",
";>,,'';>,,'''';>,,''",
"))))!!))))!!!!))))!!",
"~+++++{{{{{{{{~+++++",
"]]]]]]{^/(_:<{]]]]]]",
"[[[[[[{}}}}}_{[[[[[[",
"[[[[[[{_}}}}|{[[[[[[",
"111111{23}|34{111111",
"555555{33^^3^{555555",
"666666{7^8339{666666",
"{{{{{{{{{{{{{{{{{{{{",
"{{{{{{{{{{{{{{{{{{{{",
"{{{{{{{{{{{{{{{{{{{{",
"{{{{{{{{{{{{{{{{{{{{",
"{{{{{{{{{{{{{{{{{{{{",
"{{{{{{{{{{{{{{{{{{{{",
"{{{{{{{{{{{{{{{{{{{{"};
