/* XPM */
static char * un_sticky_xpm[] = {
"20 20 50 1",
" 	c None",
".	c #262626",
"+	c #2F2F2F",
"@	c #303030",
"#	c #353535",
"$	c #373737",
"%	c #3D3D3D",
"&	c #3E3E3E",
"*	c #3F3F3F",
"=	c #404040",
"-	c #414141",
";	c #363636",
">	c #393939",
",	c #3B3B3B",
"'	c #3C3C3C",
")	c #333333",
"!	c #323232",
"~	c #2E2E2E",
"{	c #000000",
"]	c #191919",
"^	c #141414",
"/	c #154B15",
"(	c #164F17",
"_	c #165017",
":	c #164E17",
"<	c #174D19",
"[	c #181818",
"}	c #161616",
"|	c #111111",
"1	c #144C16",
"2	c #165117",
"3	c #154B16",
"4	c #144615",
"5	c #175318",
"6	c #154D16",
"7	c #151515",
"8	c #121212",
"9	c #144815",
"0	c #154F17",
"a	c #134415",
"b	c #0E0E0E",
"c	c #0B0B0B",
"d	c #134714",
"e	c #124513",
"f	c #060606",
"g	c #040404",
"h	c #124514",
"i	c #174D18",
"j	c #154E17",
"k	c #134414",
".+@@@@.+@@@@@@.+@@@@",
"#$$$$$#$$$$$$$#$$$$$",
"%&&&**%&&&****%&&&**",
"&=----&=------&=----",
";>,,'';>,,'''';>,,''",
"))))!!))))!!!!))))!!",
"~++++~{{{{{{{{~+++++",
"]]]]]^{/(_:(<{]]]]]]",
"[[[[}|{1(((23{[[[[[[",
"[[[[[}{4__256{[[[[[[",
"777778{9_000a{877777",
"bbbbbc{d_(:(e{cbbbbb",
"fffffg{h(ijjk{ffffff",
"{{{{{{{{{{{{{{{{{{{{",
"{{{{{{{{{{{{{{{{{{{{",
"{{{{{{{{{{{{{{{{{{{{",
"{{{{{{{{{{{{{{{{{{{{",
"{{{{{{{{{{{{{{{{{{{{",
"{{{{{{{{{{{{{{{{{{{{",
"{{{{{{{{{{{{{{{{{{{{"};
