/* XPM */
static char * unselected_xpm[] = {
"16 16 28 1",
" 	c None",
".	c #63F966",
"+	c #5CFA5F",
"@	c #4CFC50",
"#	c #51FC54",
"$	c #4EFC52",
"%	c #55FC59",
"&	c #61F964",
"*	c #6EF871",
"=	c #59FB5C",
"-	c #50FC54",
";	c #64F967",
">	c #53FC57",
",	c #62F966",
"'	c #5DFA61",
")	c #59FB5D",
"!	c #57FB5B",
"~	c #58FB5B",
"{	c #5AFB5D",
"]	c #6EF870",
"^	c #61FA63",
"/	c #59FA5C",
"(	c #5EFA61",
"_	c #59FA5D",
":	c #65F969",
"<	c #63F967",
"[	c #64F966",
"}	c #58FB5C",
"                ",
"                ",
"                ",
" .+@##$%&*      ",
" =       .      ",
" -       ;      ",
" >       .      ",
" ,       '      ",
" )       !      ",
" ~       {      ",
" %       ]      ",
" ~       ,      ",
" ^       /      ",
" (_^:]%<[}      ",
"                ",
"                "};
