/* XPM */
static char * windowfcs_xpm[] = {
"20 20 24 1",
" 	c None",
".	c #262626",
"+	c #2F2F2F",
"@	c #303030",
"#	c #353535",
"$	c #373737",
"%	c #363636",
"&	c #3D3D3D",
"*	c #3E3E3E",
"=	c #3F3F3F",
"-	c #404040",
";	c #414141",
">	c #393939",
",	c #3B3B3B",
"'	c #3C3C3C",
")	c #333333",
"!	c #323232",
"~	c #2E2E2E",
"{	c #191919",
"]	c #181818",
"^	c #151515",
"/	c #0E0E0E",
"(	c #060606",
"_	c #000000",
".+@@@@@@@@@@@@@@@@@@",
"#$$$$$$$$$$$$%#$$$%#",
"&***==--------------",
"*-;;;;;;;;;----;----",
"%>,,''''''''''''''''",
"))))!!!!!!!!!!!!!!!!",
"~+++++++++++++++++++",
"{{{{{{{{{{{{{{{{{{{{",
"]]]]]]]]]]]]]]]]]]]]",
"]]]]]]]]]]]]]]]]]]]]",
"^^^^^^^^^^^^^^^^^^^^",
"////////////////////",
"((((((((((((((((((((",
"____________________",
"____________________",
"____________________",
"____________________",
"____________________",
"____________________",
"____________________"};
